PathFileType	4	(X/Y/Z)	C:\Users\Graham\Documents\MATLAB\MOtoNMS_v2_2\MyData\ElaboratedData\S3\17-05-18\staticElaborations\Static1\Static1\\Static1.trc
DataRate	CameraRate	NumFrames	NumMarkers	Units	OrigDataRate	DataStartFrame
100	100	8	38	mm	100	2
Frame#	Time	V_Sacral			R_ASIS			L_ASIS			R_Knee_Lat			R_Knee_Med			R_Thigh_Upper			R_Thigh_Front			R_Thigh_Rear			L_Knee_Lat			L_Knee_Med			L_Thigh_Upper			L_Thigh_Front			L_Thigh_Rear			R_Ankle_Lat			R_Ankle_Med			R_Shank_Upper			R_Shank_Front			R_Shank_Rear			L_Ankle_Lat			L_Ankle_Med			L_Shank_Upper			L_Shank_Front			L_Shank_Rear			R_Heel			R_MTP1			R_MTP5			L_Heel			L_MTP1			L_MTP5			Clavicle			R_Acromium			L_Acromium			LAJC			RAJC			LHJC			RHJC			LKJC			RKJC		
		X1	Y1	Z1	X2	Y2	Z2	X3	Y3	Z3	X4	Y4	Z4	X5	Y5	Z5	X6	Y6	Z6	X7	Y7	Z7	X8	Y8	Z8	X9	Y9	Z9	X10	Y10	Z10	X11	Y11	Z11	X12	Y12	Z12	X13	Y13	Z13	X14	Y14	Z14	X15	Y15	Z15	X16	Y16	Z16	X17	Y17	Z17	X18	Y18	Z18	X19	Y19	Z19	X20	Y20	Z20	X21	Y21	Z21	X22	Y22	Z22	X23	Y23	Z23	X24	Y24	Z24	X25	Y25	Z25	X26	Y26	Z26	X27	Y27	Z27	X28	Y28	Z28	X29	Y29	Z29	X30	Y30	Z30	X31	Y31	Z31	X32	Y32	Z32	X33	Y33	Z33	X34	Y34	Z34	X35	Y35	Z35	X36	Y36	Z36	X37	Y37	Z37	X38	Y38	Z38	

2	0.010000	-52.559222	1039.127732	53.819554	142.584806	1005.140378	182.730879	143.554023	1003.584432	-63.781947	49.678395	523.278110	177.874084	28.497684	516.617153	62.912183	144.411446	741.386748	180.534117	135.539451	650.667562	140.263179	104.616410	650.853287	183.906821	57.401515	524.192115	-110.082562	54.379375	513.209069	9.322947	150.561492	777.445933	-89.318815	151.917398	675.586679	-54.520641	117.252797	676.797228	-104.163956	-8.546569	99.913439	146.675289	1.137494	112.011484	65.601282	59.943966	319.882655	135.398243	44.673557	227.028764	99.651230	34.834047	223.042023	157.374427	-6.166710	108.752191	-131.400767	5.030106	105.084556	-51.178294	64.201553	302.000843	-82.667211	46.899513	208.271868	-55.704850	53.184708	213.451535	-114.938779	-70.536607	49.443611	106.073561	138.400630	55.863711	81.391699	107.518689	51.049473	159.651127	-70.445663	51.402639	-104.916117	135.463502	53.521426	-76.409038	111.195538	49.927654	-153.488629	74.747662	1402.821685	70.575192	-9.015487	1421.222230	232.763322	13.363318	1439.409301	-106.960094	-0.568302	106.918373	-91.289530	-3.704538	105.962461	106.138285	71.842703	930.346075	-28.992331	71.145618	931.465149	148.305730	55.890445	518.700592	-50.379807	39.088039	519.947632	120.393134	
3	0.020000	-52.525288	1039.133707	53.839370	142.597126	1005.137336	182.759324	143.583149	1003.595315	-63.757204	49.671698	523.269524	177.888035	28.499179	516.628602	62.925260	144.404867	741.375430	180.550583	135.532469	650.651412	140.280590	104.599189	650.844711	183.918868	57.421175	524.190146	-110.072576	54.388738	513.202102	9.334282	150.592004	777.438001	-89.296858	151.936604	675.582379	-54.499673	117.271265	676.792133	-104.144815	-8.551997	99.913730	146.676470	1.128387	112.014658	65.600633	59.938975	319.884587	135.397891	44.667837	227.037114	99.659702	34.831597	223.040978	157.374779	-6.165376	108.756114	-131.402231	5.023836	105.083632	-51.174460	64.212969	301.997735	-82.660278	46.938516	208.304809	-55.704505	53.159147	213.396743	-114.938517	-70.538925	49.442711	106.077072	138.405724	55.868075	81.396889	107.520155	51.058795	159.640840	-70.443347	51.401890	-104.914847	135.460761	53.510844	-76.416661	111.191108	49.928867	-153.485574	74.775237	1402.836649	70.613991	-9.023772	1421.230805	232.776061	13.469408	1439.457091	-106.940701	-0.570770	106.919873	-91.288345	-3.711805	105.964194	106.138551	71.870753	930.354798	-28.975985	71.161582	931.463856	148.324521	55.904957	518.696124	-50.369147	39.085438	519.949063	120.406648	
4	0.030000	-52.491686	1039.139812	53.858733	142.609624	1005.134152	182.787731	143.612583	1003.605728	-63.732212	49.664663	523.260387	177.903083	28.499806	516.639142	62.939364	144.398915	741.364385	180.568070	135.525986	650.635981	140.298993	104.582211	650.836170	183.931361	57.440347	524.188220	-110.062511	54.397036	513.195479	9.345603	150.622960	777.430278	-89.274663	151.955219	675.577915	-54.477876	117.290279	676.786798	-104.125332	-8.557429	99.913947	146.678109	1.119934	112.017667	65.600118	59.934355	319.886710	135.398668	44.662257	227.045058	99.668317	34.828959	223.039816	157.375924	-6.163980	108.759977	-131.403430	5.017624	105.082737	-51.170522	64.223800	301.995054	-82.653219	46.977998	208.339140	-55.704736	53.136979	213.346823	-114.937792	-70.541873	49.441666	106.080820	138.410258	55.872334	81.401774	107.520966	51.067584	159.631530	-70.441197	51.401279	-104.913570	135.458400	53.500636	-76.423874	111.186965	49.930036	-153.482670	74.802705	1402.850801	70.652080	-9.031095	1421.239242	232.788949	13.573107	1439.502873	-106.921550	-0.573178	106.921357	-91.286976	-3.718748	105.965807	106.139113	71.898827	930.363330	-28.959380	71.177476	931.462608	148.343381	55.918691	518.691850	-50.358454	39.082235	519.949764	120.421223	
5	0.040000	-52.458274	1039.146030	53.877279	142.622588	1005.130670	182.816689	143.643244	1003.614746	-63.706309	49.656792	523.249945	177.920515	28.499035	516.648074	62.955443	144.393747	741.353648	180.588118	135.520249	650.621669	140.319861	104.565452	650.827601	183.945254	57.458888	524.186305	-110.052121	54.403491	513.189406	9.357039	150.655232	777.422483	-89.251711	151.973057	675.572972	-54.454088	117.310812	676.780861	-104.104980	-8.562894	99.913870	146.680659	1.112681	112.020253	65.599802	59.930129	319.889031	135.401649	44.656916	227.052111	99.677150	34.825738	223.038398	157.378527	-6.162470	108.763720	-131.404183	5.011503	105.081858	-51.166357	64.233642	301.993090	-82.645839	47.018172	208.375507	-55.705802	53.121042	213.305548	-114.936170	-70.546063	49.440338	106.085201	138.413711	55.876285	81.406120	107.520517	51.075368	159.624005	-70.439358	51.400889	-104.912360	135.456728	53.491136	-76.430165	111.183363	49.931084	-153.480051	74.830418	1402.863230	70.688255	-9.035402	1421.247966	232.801642	13.672122	1439.544115	-106.903453	-0.575483	106.922789	-91.285270	-3.725107	105.967062	106.140230	71.927458	930.371062	-28.941823	71.193380	931.461348	148.362955	55.931190	518.687855	-50.347541	39.077913	519.949010	120.437979	
6	0.050000	-52.424905	1039.152275	53.894623	142.636196	1005.126784	182.846679	143.675891	1003.621506	-63.678993	49.647686	523.237682	177.941239	28.496573	516.654949	62.974151	144.389330	741.343250	180.611955	135.515380	650.608705	140.344390	104.548833	650.818986	183.961394	57.476690	524.184336	-110.041227	54.407624	513.184016	9.368684	150.689295	777.414256	-89.227631	151.990016	675.567264	-54.427494	117.333603	676.774045	-104.083439	-8.568411	99.913329	146.684437	1.107010	112.022246	65.599755	59.926258	319.891511	135.407629	44.651911	227.057932	99.686277	34.821624	223.036631	157.383033	-6.160825	108.767281	-131.404381	5.005495	105.080959	-51.161851	64.242200	301.991994	-82.638067	47.058056	208.413181	-55.707671	53.113183	213.275388	-114.933379	-70.551726	49.438678	106.090336	138.415692	55.879740	81.409805	107.518382	51.081767	159.618818	-70.437947	51.400769	-104.911308	135.455975	53.482613	-76.435119	111.180508	49.931946	-153.477818	74.858650	1402.873160	70.721346	-9.034871	1421.257457	232.813696	13.764406	1439.578617	-106.887225	-0.577665	106.924120	-91.283116	-3.730700	105.967787	106.142096	71.957093	930.377385	-28.922761	71.209323	931.460014	148.383780	55.942157	518.684176	-50.336272	39.072130	519.946315	120.457695	
7	0.060000	-52.391443	1039.158384	53.910384	142.650470	1005.122467	182.878010	143.711040	1003.625263	-63.649982	49.637094	523.223386	177.965662	28.492427	516.659616	62.995749	144.385439	741.333239	180.640382	135.511353	650.597127	140.373373	104.532229	650.810375	183.980431	57.493694	524.182231	-110.029729	54.409324	513.179360	9.380588	150.725164	777.405186	-89.202226	152.006112	675.560565	-54.397718	117.359082	676.766193	-104.060637	-8.573991	99.912226	146.689576	1.103094	112.023584	65.600043	59.922631	319.894059	135.417015	44.647336	227.062359	99.695758	34.816421	223.034488	157.389609	-6.159066	108.770595	-131.403992	4.999603	105.079978	-51.156924	64.249331	301.991756	-82.629963	47.095351	208.449887	-55.709968	53.114044	213.257225	-114.929342	-70.558636	49.436743	106.096022	138.415988	55.882545	81.412835	107.514371	51.086519	159.616213	-70.437044	51.400931	-104.910510	135.456257	53.475245	-76.438458	111.178531	49.932567	-153.476029	74.887570	1402.880029	70.750228	-9.028009	1421.268245	232.824545	13.848256	1439.604655	-106.873674	-0.579731	106.925287	-91.280458	-3.735448	105.967905	106.144810	71.988058	930.381729	-28.901838	71.225274	931.458550	148.406232	55.951509	518.680795	-50.324570	39.064761	519.941501	120.480705	
8	0.070000	-52.357786	1039.164116	53.924240	142.665273	1005.117793	182.910800	143.748919	1003.625450	-63.619231	49.624928	523.207157	177.993664	28.486916	516.662229	63.020066	144.381709	741.323701	180.673711	135.508001	650.586801	140.407144	104.515493	650.801892	184.002763	57.509921	524.179896	-110.017596	54.408863	513.175413	9.392768	150.762440	777.394870	-89.175472	152.021489	675.552743	-54.364807	117.387368	676.757276	-104.036723	-8.579624	99.910543	146.696006	1.100876	112.024311	65.600718	59.919061	319.896519	135.429789	44.643271	227.065420	99.705617	34.810058	223.032012	157.398128	-6.157243	108.773598	-131.403070	4.993814	105.078851	-51.151550	64.255055	301.992209	-82.621682	47.126762	208.482118	-55.712017	53.123071	213.250355	-114.924173	-70.566167	49.434682	106.101779	138.414584	55.884601	81.415318	107.508537	51.089509	159.616130	-70.436681	51.401352	-104.910063	135.457548	53.469105	-76.440063	111.177487	49.932901	-153.474704	74.917258	1402.883541	70.773843	-9.013704	1421.280889	232.833488	13.922410	1439.621068	-106.863579	-0.581715	106.926224	-91.277310	-3.739374	105.967427	106.148362	72.020521	930.383604	-28.878912	71.241140	931.456927	148.430500	55.959392	518.677654	-50.312414	39.055922	519.934693	120.506865	
9	0.080000	-52.323881	1039.169187	53.935991	142.680327	1005.112939	182.944981	143.789450	1003.621723	-63.586911	49.611278	523.189350	178.024666	28.480642	516.663189	63.046523	144.377710	741.314761	180.711765	135.505055	650.577472	140.445565	104.498492	650.793719	184.028488	57.525498	524.177248	-110.004848	54.406839	513.172089	9.405219	150.800456	777.382980	-89.147480	152.036427	675.543784	-54.329151	117.418309	676.747394	-104.011993	-8.585286	99.908329	146.703465	1.100097	112.024534	65.601798	59.915301	319.898679	135.445514	44.639773	227.067297	99.715809	34.802580	223.029306	157.408206	-6.155435	108.776232	-131.401732	4.988106	105.077518	-51.145779	64.259555	301.993075	-82.613407	47.148730	208.505880	-55.712969	53.138719	213.252733	-114.918133	-70.573450	49.432695	106.106987	138.411650	55.885877	81.417416	107.501153	51.090774	159.618248	-70.436837	51.401980	-104.910049	135.459677	53.464159	-76.439986	111.177340	49.932907	-153.473827	74.947734	1402.883706	70.791237	-8.991239	1421.295930	232.839710	13.986093	1439.627307	-106.857678	-0.583664	106.926875	-91.273755	-3.742595	105.966432	106.152631	72.054488	930.382642	-28.854037	71.256784	931.455154	148.456597	55.966169	518.674668	-50.299815	39.045960	519.926270	120.535595	
